# xmcd
#
# Track frame offsets:
#	150
#	13251
#	29803
#	42873
#	61304
#	75386
#	89184
#	101546
#	121952
#
# Disc length: 1829 seconds
#
# Revision: 1
# Processed by: cddbd v1.5.2PL0 Copyright (c) Steve Scherf et al.
# Submitted via: EasyCDDAExtractor 12.0.4.1
#
DISCID=74072309
DTITLE=Highway Sue - Country und Trucker Hits
DYEAR=1900
DGENRE=Country
TTITLE0=Das war der Wilde Westen
TTITLE1=Highway Sue
TTITLE2=Am Rande der Prärie
TTITLE3=Rosie`s Töchter
TTITLE4=Lilly aus der Geisterstadt
TTITLE5=Schniedelwutztown
TTITLE6=Morgenritt
TTITLE7=Sie nannte ihn nur Harry
TTITLE8=Auf dem Highway (kurz nach Mitternacht)
EXTD=
EXTT0=
EXTT1=
EXTT2=
EXTT3=
EXTT4=
EXTT5=
EXTT6=
EXTT7=
EXTT8=
PLAYORDER=
